<?xml version="1.0" encoding="utf-8"?>
<!-- Generator: Adobe Illustrator 24.1.2, SVG Export Plug-In . SVG Version: 6.00 Build 0)  -->
<svg version="1.1" id="Layer_1" xmlns="http://www.w3.org/2000/svg" xmlns:xlink="http://www.w3.org/1999/xlink" x="0px" y="0px"
	 width="1080px" height="1920px" viewBox="0 0 1080 1920" style="enable-background:new 0 0 1080 1920;" xml:space="preserve">
<style type="text/css">
	.st0{opacity:0.5;fill:url(#SVGID_1_);enable-background:new    ;}
	.st1{opacity:0.5;fill:url(#SVGID_2_);enable-background:new    ;}
	.st2{opacity:0.35;fill:url(#SVGID_3_);enable-background:new    ;}
	.st3{opacity:0.15;fill:url(#SVGID_4_);enable-background:new    ;}
	.st4{opacity:0.2;fill:url(#SVGID_5_);enable-background:new    ;}
</style>
<radialGradient id="SVGID_1_" cx="662.5622" cy="1202.5504" r="464.1523" gradientTransform="matrix(4.561794e-02 1.048 0.722 -3.140560e-02 136.2818 -449.6983)" gradientUnits="userSpaceOnUse">
	<stop  offset="6.145251e-02" style="stop-color:#7B48B7"/>
	<stop  offset="1" style="stop-color:#7B48B7;stop-opacity:0"/>
</radialGradient>
<path class="st0" d="M689.7,222c-12-275.2,132.8-505,323.4-513.4s354.7,208,366.7,483.3c12,275.2-132.8,505-323.4,513.3
	C865.8,713.6,701.7,497.2,689.7,222z"/>
<radialGradient id="SVGID_2_" cx="-444.0813" cy="-623.1979" r="464.101" gradientTransform="matrix(-0.8385 -0.6303 -0.4342 0.5777 -686.2548 1936.6169)" gradientUnits="userSpaceOnUse">
	<stop  offset="6.145251e-02" style="stop-color:#7B48B7"/>
	<stop  offset="1" style="stop-color:#7B48B7;stop-opacity:0"/>
</radialGradient>
<path class="st1" d="M164.3,1580.4c220.2,165.5,305.8,423.3,191.2,575.8s-386.2,141.8-606.4-23.6s-305.8-423.3-191.2-575.8
	C-327.4,1404.2-55.9,1414.9,164.3,1580.4z"/>
<radialGradient id="SVGID_3_" cx="658.5522" cy="1558.1554" r="463.898" gradientTransform="matrix(1.502109e-02 0.3447 0.356 -1.546239e-02 524.4545 -136.0601)" gradientUnits="userSpaceOnUse">
	<stop  offset="6.145251e-02" style="stop-color:#F600FF"/>
	<stop  offset="1" style="stop-color:#E62AFF;stop-opacity:0"/>
</radialGradient>
<path class="st2" d="M918.9,74.3c-4-90.5,69-167.3,163-171.4c94-4.1,173.3,66,177.3,156.5s-69,167.3-163,171.4
	C1002.1,235,922.7,164.9,918.9,74.3z"/>
<radialGradient id="SVGID_4_" cx="1047.0631" cy="1414.8121" r="464.1042" gradientTransform="matrix(-5.055211e-03 0.4154 0.3629 -3.966163e-02 553.1578 -237.1362)" gradientUnits="userSpaceOnUse">
	<stop  offset="6.145251e-02" style="stop-color:#F600FF"/>
	<stop  offset="1" style="stop-color:#E62AFF;stop-opacity:0"/>
</radialGradient>
<path class="st3" d="M887.9,160.7c1.3-109.1,80-206.1,175.8-216.5s172.3,69.5,171,178.5c-1.3,109.1-80,206.1-175.8,216.5
	C963,349.8,886.5,269.9,887.9,160.7z"/>
<radialGradient id="SVGID_5_" cx="-2716.9673" cy="-2533.53" r="240.9827" gradientTransform="matrix(-0.2758 -0.2073 -0.2141 0.2848 -1128.3182 1975.222)" gradientUnits="userSpaceOnUse">
	<stop  offset="6.145251e-02" style="stop-color:#F600FF"/>
	<stop  offset="1" style="stop-color:#E62AFF;stop-opacity:0"/>
</radialGradient>
<path class="st4" d="M216.5,1746.4c37.6,28.2,44.2,82.8,14.9,121.6s-83.4,47.7-121,19.4c-37.6-28.2-44.2-82.6-14.9-121.6
	C124.7,1726.9,178.9,1718.2,216.5,1746.4z"/>
</svg>
