<?xml version="1.0" encoding="utf-8"?>
<!-- Generator: Adobe Illustrator 24.1.2, SVG Export Plug-In . SVG Version: 6.00 Build 0)  -->
<svg version="1.1" id="Layer_1" xmlns="http://www.w3.org/2000/svg" xmlns:xlink="http://www.w3.org/1999/xlink" x="0px" y="0px"
	 width="960px" height="1080px" viewBox="0 0 960 1080" style="enable-background:new 0 0 960 1080;" xml:space="preserve">
<style type="text/css">
	.st0{opacity:0.35;fill:url(#SVGID_1_);enable-background:new    ;}
	.st1{opacity:0.35;fill:url(#SVGID_2_);enable-background:new    ;}
	.st2{opacity:0.35;fill:url(#_x3C_Path_x3E__1_);enable-background:new    ;}
	.st3{opacity:0.15;fill:url(#SVGID_3_);enable-background:new    ;}
</style>
<radialGradient id="SVGID_1_" cx="970.1873" cy="821.3382" r="464.1059" gradientTransform="matrix(0.9956 0.3304 0.2276 -0.6859 -74.255 942.606)" gradientUnits="userSpaceOnUse">
	<stop  offset="6.145251e-02" style="stop-color:#7B48B7"/>
	<stop  offset="1" style="stop-color:#7B48B7;stop-opacity:0"/>
</radialGradient>
<path class="st0" d="M1552,856.9c-60.1,181-320.8,257.5-582.2,170.7c-261.5-86.8-424.7-303.9-364.6-484.9S926,285.2,1187.4,372
	S1612.1,675.8,1552,856.9z"/>
<radialGradient id="SVGID_2_" cx="-29.4636" cy="198.8187" r="464.1393" gradientTransform="matrix(0.9956 0.3304 0.2276 -0.6859 -143.3672 1150.8545)" gradientUnits="userSpaceOnUse">
	<stop  offset="6.145251e-02" style="stop-color:#7B48B7"/>
	<stop  offset="1" style="stop-color:#7B48B7;stop-opacity:0"/>
</radialGradient>
<path class="st1" d="M346,1161.9c-60.1,181-320.8,257.5-582.2,170.7s-424.8-303.9-364.7-485c60.1-181,320.8-257.5,582.2-170.7
	S406.1,980.8,346,1161.9z"/>
<radialGradient id="_x3C_Path_x3E__1_" cx="1221.2183" cy="1197.7073" r="464.1218" gradientTransform="matrix(0.3275 0.1087 0.1122 -0.3382 369.5183 1007.0182)" gradientUnits="userSpaceOnUse">
	<stop  offset="6.145251e-02" style="stop-color:#F600FF"/>
	<stop  offset="1" style="stop-color:#E62AFF;stop-opacity:0"/>
</radialGradient>
<path id="_x3C_Path_x3E_" class="st2" d="M1059.6,786.4c-29.6,89.3-123.4,138.5-209.4,109.9S718.5,772.3,748.1,683
	s123.4-138.5,209.4-109.9C1043.6,601.6,1089.3,697.1,1059.6,786.4z"/>
<radialGradient id="SVGID_3_" cx="-968.7176" cy="279.4676" r="240.7367" gradientTransform="matrix(0.3275 0.1087 0.1122 -0.3382 324.8988 1141.4656)" gradientUnits="userSpaceOnUse">
	<stop  offset="6.145251e-02" style="stop-color:#F600FF"/>
	<stop  offset="1" style="stop-color:#E62AFF;stop-opacity:0"/>
</radialGradient>
<path class="st3" d="M119.7,968.4c-15.4,46.3-63.9,71.8-108.5,57S-57,961.1-41.7,914.9s63.9-71.8,108.5-57S135.1,922.2,119.7,968.4z
	"/>
</svg>
