<?xml version="1.0" encoding="utf-8"?>
<!-- Generator: Adobe Illustrator 24.1.2, SVG Export Plug-In . SVG Version: 6.00 Build 0)  -->
<svg version="1.1" id="Layer_1" xmlns="http://www.w3.org/2000/svg" xmlns:xlink="http://www.w3.org/1999/xlink" x="0px" y="0px"
	 width="1200px" height="800px" viewBox="0 0 1200 800" style="enable-background:new 0 0 1200 800;" xml:space="preserve">
<style type="text/css">
	.st0{opacity:0.8;fill:url(#SVGID_1_);enable-background:new    ;}
	.st1{opacity:0.8;fill:url(#SVGID_2_);enable-background:new    ;}
	.st2{opacity:0.5;fill:url(#SVGID_3_);enable-background:new    ;}
	.st3{opacity:0.5;fill:url(#SVGID_4_);enable-background:new    ;}
</style>
<radialGradient id="SVGID_1_" cx="1191.7563" cy="1291.8065" r="567.1304" gradientTransform="matrix(0.9513 -0.4422 0.3046 0.6553 -508.5521 -168.5262)" gradientUnits="userSpaceOnUse">
	<stop  offset="6.145251e-02" style="stop-color:#7B48B7"/>
	<stop  offset="1" style="stop-color:#7B48B7;stop-opacity:0"/>
</radialGradient>
<path class="st0" d="M1571.4-106c98.3,211.4-69.5,497.8-374.8,639.7S564.2,619.3,465.9,408s69.5-497.8,374.8-639.7
	S1473.1-317.3,1571.4-106z"/>
<radialGradient id="SVGID_2_" cx="146.7041" cy="728.5568" r="585.2914" gradientTransform="matrix(0.9956 0.3304 -0.2276 0.6859 232.6609 -363.8882)" gradientUnits="userSpaceOnUse">
	<stop  offset="6.145251e-02" style="stop-color:#7B48B7"/>
	<stop  offset="1" style="stop-color:#7B48B7;stop-opacity:0"/>
</radialGradient>
<path class="st1" d="M809.9,382.4C734.1,610.7,405.4,707.1,75.7,597.7S-459.9,214.4-384.1-13.8S20.3-338.5,350.1-229.1
	S885.6,154.1,809.9,382.4z"/>
<radialGradient id="SVGID_3_" cx="1195.7424" cy="1269.3608" r="626.9559" gradientTransform="matrix(0.33 -0.1534 0.1277 0.2746 -44.4424 -34.6896)" gradientUnits="userSpaceOnUse">
	<stop  offset="6.145251e-02" style="stop-color:#F600FF"/>
	<stop  offset="1" style="stop-color:#E62AFF;stop-opacity:0"/>
</radialGradient>
<path class="st2" d="M724.2,31.9c48,103.2-8,231-125.1,285.4S348.3,332.2,300.3,229s8-231,125.1-285.4S676.2-71.3,724.2,31.9z"/>
<radialGradient id="SVGID_4_" cx="-706.0976" cy="380.5563" r="355.0272" gradientTransform="matrix(0.4642 0.1541 -0.1657 0.4992 751.1287 72.7359)" gradientUnits="userSpaceOnUse">
	<stop  offset="6.145251e-02" style="stop-color:#F600FF"/>
	<stop  offset="1" style="stop-color:#E62AFF;stop-opacity:0"/>
</radialGradient>
<path class="st3" d="M529.1,209.9C495.7,310.7,393,367.4,299.7,336.4S158,198.7,191.5,97.9S327.6-59.5,420.9-28.6
	S562.6,109.2,529.1,209.9z"/>
</svg>
