<?xml version="1.0" encoding="utf-8"?>
<!-- Generator: Adobe Illustrator 24.1.2, SVG Export Plug-In . SVG Version: 6.00 Build 0)  -->
<svg version="1.1" id="Layer_1" xmlns="http://www.w3.org/2000/svg" xmlns:xlink="http://www.w3.org/1999/xlink" x="0px" y="0px"
	 width="1080px" height="1920px" viewBox="0 0 1080 1920" style="enable-background:new 0 0 1080 1920;" xml:space="preserve">
<style type="text/css">
	.st0{opacity:0.5;fill:url(#SVGID_1_);enable-background:new    ;}
	.st1{opacity:0.2;fill:url(#SVGID_2_);enable-background:new    ;}
	.st2{opacity:0.5;fill:url(#SVGID_3_);enable-background:new    ;}
	.st3{opacity:0.35;fill:url(#SVGID_4_);enable-background:new    ;}
</style>
<radialGradient id="SVGID_1_" cx="125.1814" cy="1348.5281" r="464.1393" gradientTransform="matrix(0.2702 1.0136 -0.6983 0.1862 852.0372 349.2426)" gradientUnits="userSpaceOnUse">
	<stop  offset="6.145251e-02" style="stop-color:#7B48B7"/>
	<stop  offset="1" style="stop-color:#7B48B7;stop-opacity:0"/>
</radialGradient>
<path class="st0" d="M72.7,1209.3c-184.3,49.1-391.3-126.8-462.2-393s20.9-521.9,205.2-571.1C0,196.1,207,372,277.9,638.1
	S257.1,1160,72.7,1209.3z"/>
<radialGradient id="SVGID_2_" cx="-1951.222" cy="1456.1493" r="240.7822" gradientTransform="matrix(8.888416e-02 0.3334 -0.3443 9.183116e-02 683.3147 1243.7778)" gradientUnits="userSpaceOnUse">
	<stop  offset="6.145251e-02" style="stop-color:#F600FF"/>
	<stop  offset="1" style="stop-color:#E62AFF;stop-opacity:0"/>
</radialGradient>
<path class="st1" d="M30.5,809.1c-47.2,12.5-95.1-14-107.2-59.4c-12.1-45.4,16.3-92.3,63.3-104.9c47-12.6,95.1,14,107.2,59.4
	C105.9,749.6,77.5,796.6,30.5,809.1z"/>
<radialGradient id="SVGID_3_" cx="64.801" cy="33.9281" r="464.0666" gradientTransform="matrix(0.5138 0.9145 -0.63 0.354 1068.3021 332.9504)" gradientUnits="userSpaceOnUse">
	<stop  offset="6.145251e-02" style="stop-color:#7B48B7"/>
	<stop  offset="1" style="stop-color:#7B48B7;stop-opacity:0"/>
</radialGradient>
<path class="st2" d="M1324.5,839.1c-166.3,93.4-410.6-25.5-545.4-265.7c-134.9-240.2-109.5-510.6,56.8-604s410.6,25.5,545.4,265.7
	S1490.9,745.6,1324.5,839.1z"/>
<radialGradient id="SVGID_4_" cx="-2301.3196" cy="-1329.4602" r="464.0349" gradientTransform="matrix(0.169 0.3008 -0.3106 0.1746 1059.5334 1279.4293)" gradientUnits="userSpaceOnUse">
	<stop  offset="6.145251e-02" style="stop-color:#F600FF"/>
	<stop  offset="1" style="stop-color:#E62AFF;stop-opacity:0"/>
</radialGradient>
<path class="st3" d="M1163.9,498.1c-82,46.1-184.5,19.3-228.8-59.7s-13.9-180.4,68.1-226.5s184.5-19.3,228.8,59.7
	C1276.6,350.6,1246.1,452,1163.9,498.1z"/>
</svg>
