<?xml version="1.0" encoding="utf-8"?>
<!-- Generator: Adobe Illustrator 24.1.2, SVG Export Plug-In . SVG Version: 6.00 Build 0)  -->
<svg version="1.1" id="Layer_1" xmlns="http://www.w3.org/2000/svg" xmlns:xlink="http://www.w3.org/1999/xlink" x="0px" y="0px"
	 width="1920px" height="1080px" viewBox="0 0 1920 1080" style="enable-background:new 0 0 1920 1080;" xml:space="preserve">
<style type="text/css">
	.st0{opacity:0.4;fill:url(#SVGID_1_);enable-background:new    ;}
	.st1{opacity:0.25;fill:url(#SVGID_2_);enable-background:new    ;}
	.st2{opacity:0.5;fill:url(#SVGID_3_);enable-background:new    ;}
	.st3{opacity:0.2;fill:url(#SVGID_4_);enable-background:new    ;}
</style>
<radialGradient id="SVGID_1_" cx="1693.8955" cy="843.1342" r="464.1059" gradientTransform="matrix(0.9956 0.3304 -0.2276 0.6859 210.055 -286.1688)" gradientUnits="userSpaceOnUse">
	<stop  offset="6.145251e-02" style="stop-color:#7B48B7"/>
	<stop  offset="1" style="stop-color:#7B48B7;stop-opacity:0"/>
</radialGradient>
<path class="st0" d="M2178,1008.9c-60.1,181-320.8,257.5-582.2,170.7c-261.5-86.8-424.7-303.9-364.6-484.9S1552,437.2,1813.4,524
	S2238.1,827.8,2178,1008.9z"/>
<radialGradient id="SVGID_2_" cx="2073.0557" cy="1027.1454" r="464.1219" gradientTransform="matrix(0.3275 0.1087 -0.1122 0.3382 966.17 358.9783)" gradientUnits="userSpaceOnUse">
	<stop  offset="6.145251e-02" style="stop-color:#F600FF"/>
	<stop  offset="1" style="stop-color:#E62AFF;stop-opacity:0"/>
</radialGradient>
<path class="st1" d="M1685.6,983.4c-29.6,89.3-123.4,138.5-209.4,109.9s-131.7-124-102.1-213.3s123.4-138.5,209.4-109.9
	C1669.6,798.6,1715.3,894.1,1685.6,983.4z"/>
<radialGradient id="SVGID_3_" cx="76.1361" cy="1591.3616" r="464.1393" gradientTransform="matrix(0.9956 0.3304 -0.2276 0.6859 140.9428 -77.9203)" gradientUnits="userSpaceOnUse">
	<stop  offset="6.145251e-02" style="stop-color:#7B48B7"/>
	<stop  offset="1" style="stop-color:#7B48B7;stop-opacity:0"/>
</radialGradient>
<path class="st2" d="M328,1195.9c-60.1,181-320.8,257.5-582.2,170.7s-424.8-303.9-364.7-485c60.1-181,320.8-257.5,582.2-170.7
	S388.1,1014.8,328,1195.9z"/>
<radialGradient id="SVGID_4_" cx="-2036.9832" cy="2080.5571" r="240.7368" gradientTransform="matrix(0.3275 0.1087 -0.1122 0.3382 921.5505 493.4257)" gradientUnits="userSpaceOnUse">
	<stop  offset="6.145251e-02" style="stop-color:#F600FF"/>
	<stop  offset="1" style="stop-color:#E62AFF;stop-opacity:0"/>
</radialGradient>
<path class="st3" d="M101.7,1002.4c-15.4,46.3-63.9,71.8-108.5,57S-75,995.1-59.7,948.9s63.9-71.8,108.5-57
	S117.1,956.2,101.7,1002.4z"/>
</svg>
