<svg xmlns="http://www.w3.org/2000/svg" viewBox="0 0 500 500">
	<style type="text/css">
		.st0 {
			fill: #000000;
		}
		@media (prefers-color-scheme: dark) {
			.st0 {
				fill: #ffffff;
			}
		}
	</style>
<path class="st0" d="M94.5,37.6H68.1v-4.7h31.8c23,0,50.8-7.5,50.8-30.5v-2h4.7v228.9c25.6-44.1,65.5-71.1,122.6-71.1
	c92.1,0,154.5,68.4,154.5,171.4c0,94.2-69.8,170.7-154.5,170.7c-52.2,0-101.6-27.1-120.6-79.3c-4.2-11.5-10.4-18.6-16.6-18.6
	c-10.8,0-21.8,21.2-24.1,77.7l-0.7,16.8l-7.5,2l2.7-69.8V54.5C111.4,43.7,105.3,37.6,94.5,37.6z M267.3,484.7
	c70.5,0,117.2-58.3,117.2-145c0-97.6-45.4-163.3-114.5-163.3c-45,0-88.8,22.6-114.5,76.2V352C155.5,440.7,211,484.7,267.3,484.7z"/>
</svg>
