<?xml version="1.0" encoding="utf-8"?>
<!-- Generator: Adobe Illustrator 24.1.2, SVG Export Plug-In . SVG Version: 6.00 Build 0)  -->
<svg version="1.1" id="Layer_1" xmlns="http://www.w3.org/2000/svg" xmlns:xlink="http://www.w3.org/1999/xlink" x="0px" y="0px"
	 width="80px" height="80px" viewBox="0 0 80 80" style="enable-background:new 0 0 80 80;" xml:space="preserve">
<style type="text/css">
	.st0{opacity:0.19;enable-background:new    ;}
	.st1{fill:#F18AF9;}
</style>
<ellipse class="st0" cx="39.3" cy="74.5" rx="17.4" ry="5.5">
<animate  accumulate="none" additive="replace" attributeName="stop-color" calcMode="linear" dur="8s" fill="remove" repeatCount="indefinite" restart="always" values="#9C26F9; #FF1F13; #9C26F9">
	</animate>
<animate  accumulate="none" additive="replace" attributeName="stop-color" calcMode="linear" dur="8s" fill="remove" repeatCount="indefinite" restart="always" values="#7AD2FA; #DE93FF; #7AD2FA">
	</animate>
</ellipse>
<path class="st1" d="M51.5,27.4c-0.8-0.4-1.9-0.8-3.1-1.2c-1.2-0.4-2.5-0.8-4.1-1.2c-0.6-0.1-1.9-0.5-3.9-1c1.2-0.3,2.5-0.7,3.8-1
	c1.9-0.5,3.3-0.9,4.4-1.2c1.1-0.3,2-0.8,2.8-1.3c1.8-1,2.7-2.3,2.7-3.6c0-0.5-0.1-0.9-0.3-1.3c-0.5-1-1.4-1.5-2.7-1.5
	c-0.9,0-1.9,0.3-2.9,0.9c-0.8,0.5-1.7,1.2-2.8,2.2c-1,1-2.1,2-3.2,3.1l-2.6,2.6c0.3-1.4,0.7-2.6,1-3.6c0.4-1.5,0.8-3,1.1-4.3
	s0.4-2.5,0.4-3.4c0-1.5-0.3-2.7-0.9-3.4C40.7,7.4,40,7,39.1,7s-1.6,0.4-2.2,1.1C36.3,8.8,36,10,36,11.5c0,1,0.1,2,0.4,3.2
	c0.2,1.1,0.6,2.7,1.2,4.6l1,3.6c-1-1-1.9-1.9-2.7-2.7c-1.1-1.1-2.1-2.1-3.1-3s-1.9-1.6-2.7-2.1c-1.1-0.7-2.1-1-3-1
	c-1.1,0-1.9,0.5-2.4,1.4c-0.3,0.5-0.4,1-0.4,1.5c0,1.4,0.9,2.6,2.7,3.6c0.8,0.4,1.9,0.8,3.1,1.2c1.3,0.4,2.7,0.8,4.1,1.2
	c0.6,0.1,1.9,0.5,3.9,1c-1.2,0.3-2.5,0.7-3.8,1c-1.8,0.5-3.3,0.9-4.4,1.2c-1.1,0.3-2,0.8-2.8,1.3c-1.8,1.2-2.7,2.4-2.7,3.6
	c0,0.5,0.1,0.9,0.3,1.3c0.5,1,1.4,1.5,2.7,1.5c0.9,0,1.9-0.3,2.9-0.9c0.8-0.5,1.7-1.2,2.8-2.2c1-1,2.1-2,3.2-3.1l2.6-2.6
	c-0.3,1.4-0.7,2.6-1,3.6c-0.4,1.5-0.8,3-1.1,4.3c-0.3,1.3-0.4,2.5-0.4,3.4c0,1.5,0.3,2.7,0.8,3.4c0.6,0.7,1.3,1.1,2.2,1.1
	s1.7-0.4,2.3-1.1c0.6-0.7,1-1.9,1-3.4c-0.1-1.5-0.6-4-1.6-7.7c-0.4-1.3-0.7-2.5-1-3.6l3,2.9c1,1.1,2,2,3,2.9s1.9,1.5,2.7,2
	c1.1,0.7,2.1,1,3,1c1.1,0,1.9-0.5,2.4-1.4c0.3-0.5,0.4-1,0.4-1.5v-2h-0.5C54.1,29,53.2,28.5,51.5,27.4z"/>
<path class="st1" d="M56.3,6.9C51.5,2.1,46,0,39.4,0S27.3,2.4,22.5,6.9c-4.6,4.5-6.9,10.1-6.9,16.9c0,5.5,2.1,12.6,6.5,21.6
	s7.9,15.4,10.5,19c2.6,3.9,4.9,6.9,6.5,9.4l6-8.4c4-5.6,7.9-12.5,11.9-20.9s6-15.1,6-20.6C63,17.1,60.8,11.5,56.3,6.9z M39.3,42
	c-9.9,0-18-8.1-18-18s8.1-18,18-18s18,8.1,18,18S49.3,42,39.3,42z"/>
</svg>
