<?xml version="1.0" encoding="utf-8"?>
<!-- Generator: Adobe Illustrator 24.1.2, SVG Export Plug-In . SVG Version: 6.00 Build 0)  -->
<svg version="1.1" id="Layer_1" xmlns="http://www.w3.org/2000/svg" xmlns:xlink="http://www.w3.org/1999/xlink" x="0px" y="0px"
	 width="1920px" height="1080px" viewBox="0 0 1920 1080" style="enable-background:new 0 0 1920 1080;" xml:space="preserve">
<style type="text/css">
	.st0{opacity:0.5;fill:url(#SVGID_1_);enable-background:new    ;}
	.st1{opacity:0.35;fill:url(#SVGID_2_);enable-background:new    ;}
	.st2{opacity:0.5;fill:url(#SVGID_3_);enable-background:new    ;}
	.st3{opacity:0.2;fill:url(#SVGID_4_);enable-background:new    ;}
</style>
<radialGradient id="SVGID_1_" cx="1648.4124" cy="712.1864" r="464.1059" gradientTransform="matrix(0.9956 0.3304 0.2276 -0.6859 -35.753 454.6032)" gradientUnits="userSpaceOnUse">
	<stop  offset="6.145251e-02" style="stop-color:#7B48B7"/>
	<stop  offset="1" style="stop-color:#7B48B7;stop-opacity:0"/>
</radialGradient>
<path class="st0" d="M2240.9,667.9c-60.1,181-320.8,257.5-582.2,170.7c-261.5-86.8-424.7-303.9-364.6-484.9s320.8-257.5,582.2-170.7
	S2301,486.8,2240.9,667.9z"/>
<radialGradient id="SVGID_2_" cx="2649.4763" cy="1515.619" r="464.1219" gradientTransform="matrix(0.3275 0.1087 0.1122 -0.3382 844.994 724.2343)" gradientUnits="userSpaceOnUse">
	<stop  offset="6.145251e-02" style="stop-color:#F600FF"/>
	<stop  offset="1" style="stop-color:#E62AFF;stop-opacity:0"/>
</radialGradient>
<path class="st1" d="M2038.5,551.4c-29.6,89.3-123.4,138.5-209.4,109.9S1697.4,537.3,1727,448s123.4-138.5,209.4-109.9
	C2022.5,366.5,2068.2,462,2038.5,551.4z"/>
<radialGradient id="SVGID_3_" cx="-11.9132" cy="479.9033" r="464.1394" gradientTransform="matrix(0.9956 0.3304 0.2276 -0.6859 -104.8652 662.8517)" gradientUnits="userSpaceOnUse">
	<stop  offset="6.145251e-02" style="stop-color:#7B48B7"/>
	<stop  offset="1" style="stop-color:#7B48B7;stop-opacity:0"/>
</radialGradient>
<path class="st2" d="M466,486.9c-60.1,181-320.8,257.5-582.2,170.7S-541,353.7-481,172.6C-420.9-8.4-160.2-84.9,101.2,1.9
	S526,305.8,466,486.9z"/>
<radialGradient id="SVGID_4_" cx="-2712.1357" cy="1139.0375" r="240.7368" gradientTransform="matrix(0.3275 0.1087 0.1122 -0.3382 800.3745 858.6817)" gradientUnits="userSpaceOnUse">
	<stop  offset="6.145251e-02" style="stop-color:#F600FF"/>
	<stop  offset="1" style="stop-color:#E62AFF;stop-opacity:0"/>
</radialGradient>
<path class="st3" d="M120.6,205.4c-15.4,46.3-63.9,71.8-108.5,57s-68.2-64.3-52.9-110.5s63.9-71.8,108.5-57S136,159.2,120.6,205.4z"
	/>
</svg>
