<?xml version="1.0" encoding="utf-8"?>
<!-- Generator: Adobe Illustrator 24.1.2, SVG Export Plug-In . SVG Version: 6.00 Build 0)  -->
<svg version="1.1" id="Layer_1" xmlns="http://www.w3.org/2000/svg" xmlns:xlink="http://www.w3.org/1999/xlink" x="0px" y="0px"
	 width="1920px" height="1080px" viewBox="0 0 1920 1080" style="enable-background:new 0 0 1920 1080;" xml:space="preserve">
<style type="text/css">
	.st0{opacity:0.45;fill:url(#SVGID_1_);enable-background:new    ;}
	.st1{opacity:0.45;fill:url(#SVGID_2_);enable-background:new    ;}
	.st2{opacity:0.35;fill:url(#SVGID_3_);enable-background:new    ;}
	.st3{opacity:0.25;fill:url(#SVGID_4_);enable-background:new    ;}
</style>
<radialGradient id="SVGID_1_" cx="1746.7517" cy="432.396" r="464.1059" gradientTransform="matrix(0.9956 0.3304 -0.2276 0.6859 207.9474 -127.9072)" gradientUnits="userSpaceOnUse">
	<stop  offset="6.145251e-02" style="stop-color:#7B48B7"/>
	<stop  offset="1" style="stop-color:#7B48B7;stop-opacity:0"/>
</radialGradient>
<path class="st0" d="M2322,902.9c-60.1,181-320.8,257.5-582.2,170.7c-261.5-86.8-424.7-303.9-364.6-484.9S1696,331.2,1957.4,418
	S2382.1,721.8,2322,902.9z"/>
<radialGradient id="SVGID_2_" cx="205.5946" cy="1146.6398" r="464.1393" gradientTransform="matrix(0.9956 0.3304 -0.2276 0.6859 138.8352 80.3413)" gradientUnits="userSpaceOnUse">
	<stop  offset="6.145251e-02" style="stop-color:#7B48B7"/>
	<stop  offset="1" style="stop-color:#7B48B7;stop-opacity:0"/>
</radialGradient>
<path class="st1" d="M556,1091.9c-60.1,181-320.8,257.5-582.2,170.7s-424.8-303.9-364.7-485c60.1-181,320.8-257.5,582.2-170.7
	S616.1,910.8,556,1091.9z"/>
<radialGradient id="SVGID_3_" cx="3636.6062" cy="-577.7092" r="464.1219" gradientTransform="matrix(0.3275 0.1087 -0.1122 0.3382 644.0425 411.0456)" gradientUnits="userSpaceOnUse">
	<stop  offset="6.145251e-02" style="stop-color:#F600FF"/>
	<stop  offset="1" style="stop-color:#E62AFF;stop-opacity:0"/>
</radialGradient>
<path class="st2" d="M2055.6,662.7c-29.6,89.3-123.4,138.5-209.4,109.9s-131.7-124-102.1-213.3s123.4-138.5,209.4-109.9
	C2039.6,477.9,2085.3,573.4,2055.6,662.7z"/>
<radialGradient id="SVGID_4_" cx="-1276.9138" cy="1410.2826" r="240.7368" gradientTransform="matrix(0.4208 0.1312 -0.1442 0.4082 739.291 493.7251)" gradientUnits="userSpaceOnUse">
	<stop  offset="6.145251e-02" style="stop-color:#F600FF"/>
	<stop  offset="1" style="stop-color:#E62AFF;stop-opacity:0"/>
</radialGradient>
<path class="st3" d="M102.4,934.1C82.6,990,20.3,1020.8-37,1002.9s-87.6-77.6-68-133.4c19.7-55.8,82.1-86.7,139.4-68.8
	S122.1,878.4,102.4,934.1z"/>
</svg>
